<svg width="54" height="54" fill="none" xmlns="http://www.w3.org/2000/svg"><path d="M2 27C2 15.216 2 9.321 5.66 5.66 9.322 2 15.214 2 27 2c11.784 0 17.679 0 21.34 3.66C52 9.322 52 15.214 52 27c0 11.784 0 17.679-3.66 21.34C44.678 52 38.787 52 27 52c-11.784 0-17.679 0-21.34-3.66C2 44.678 2 38.787 2 27Z" stroke="#fff" stroke-width="3.125" stroke-linecap="round" stroke-linejoin="round"/><path d="M41.495 12.525h-.026M38.842 27a11.842 11.842 0 1 1-23.683 0 11.842 11.842 0 0 1 23.683 0Z" stroke="#fff" stroke-width="3.125" stroke-linecap="round" stroke-linejoin="round"/></svg>