<svg width="28" height="26" fill="none" xmlns="http://www.w3.org/2000/svg"><path fill-rule="evenodd" clip-rule="evenodd" d="M14 .977c-1.902 0-3.727.555-5.072 1.543-1.345.989-2.1 2.33-2.1 3.727v6.128c0 .692.185 1.378.545 2.017.36.64.889 1.22 1.555 1.71.666.49 1.457.878 2.327 1.143.87.265 1.803.401 2.745.401.942 0 1.875-.136 2.745-.401a7.733 7.733 0 0 0 2.327-1.143c.666-.49 1.194-1.07 1.555-1.71.36-.64.546-1.325.546-2.017V6.247c0-1.397-.756-2.738-2.101-3.727C17.727 1.532 15.902.977 14 .977ZM12.174 22.46v2.168c0 .356.192.697.535.949.342.252.807.393 1.291.393.484 0 .949-.142 1.291-.393.343-.252.535-.593.535-.949v-2.17c3.281-.115 6.376-1.154 8.643-2.9C26.735 17.81 28 15.49 28 13.076c0-.356-.192-.698-.535-.95-.342-.25-.807-.392-1.291-.392-.484 0-.949.141-1.291.393-.343.251-.535.593-.535.949 0 1.779-.962 3.486-2.674 4.744-1.713 1.258-4.035 1.965-6.457 1.965h-2.434c-2.422 0-4.744-.707-6.457-1.965-1.712-1.259-2.674-2.965-2.674-4.744 0-.177-.047-.351-.139-.514a1.4 1.4 0 0 0-.396-.435 1.968 1.968 0 0 0-.592-.291 2.407 2.407 0 0 0-.699-.102c-.24 0-.477.034-.699.102a1.968 1.968 0 0 0-.592.29 1.4 1.4 0 0 0-.396.436 1.041 1.041 0 0 0-.139.514c0 2.414 1.264 4.735 3.53 6.482 2.267 1.748 5.362 2.787 8.644 2.902Z" fill="#606060"/></svg>